<svg xmlns="http://www.w3.org/2000/svg" width="1200" height="630" viewBox="0 0 1200 630" role="img" aria-labelledby="title description">
  <title id="title">Veo</title>
  <desc id="description">Collaborative bingo for better meetings</desc>
  <rect width="1200" height="630" fill="#faf8ff" />
  <circle cx="165" cy="75" r="280" fill="#ede9fe" />
  <circle cx="1120" cy="590" r="330" fill="#fff0ef" />
  <g transform="translate(140 155) scale(5)">
    <defs>
      <mask id="tiles">
        <rect width="64" height="64" fill="black" />
        <rect x="4" y="4" width="27" height="27" rx="7" fill="white" />
        <rect x="33" y="4" width="27" height="27" rx="7" fill="white" />
        <rect x="4" y="33" width="27" height="27" rx="7" fill="white" />
        <circle cx="32" cy="32" r="9" fill="black" />
      </mask>
    </defs>
    <rect width="64" height="64" fill="#6d28d9" mask="url(#tiles)" />
    <circle cx="47" cy="47" r="13" fill="#ff625d" />
  </g>
  <g fill="none" stroke="#18181b" stroke-linecap="round" stroke-linejoin="round" stroke-width="24">
    <path d="M540 246l40 108 40-108" />
    <path d="M742 334c-12 16-28 24-48 24-32 0-52-24-52-56s20-56 52-56c28 0 48 20 48 48h-100" />
    <circle cx="834" cy="302" r="56" />
  </g>
  <text x="540" y="430" fill="#52525b" font-family="Inter, system-ui, sans-serif" font-size="34" font-weight="500">Bingo for better meetings</text>
</svg>
